<svg xmlns="http://www.w3.org/2000/svg" viewBox="0 0 100 100">
  <defs>
    <radialGradient id="ocean2">
      <stop offset="30%" style="stop-color:#42a5f5"/>
      <stop offset="100%" style="stop-color:#1976d2"/>
    </radialGradient>
  </defs>
  <circle cx="50" cy="50" r="42" fill="url(#ocean2)"/>
  
  <!-- Americas -->
  <path d="M 16 24 L 20 20 L 24 22 L 26 28 L 28 34 L 26 40 L 24 46 L 22 50 L 20 56 L 22 62 L 24 68 L 22 72 L 18 70 L 14 64 L 12 56 L 14 48 L 16 40 L 14 32 Z" fill="#66bb6a"/>
  
  <!-- Europe/Africa -->
  <path d="M 46 20 L 50 18 L 54 20 L 58 24 L 60 30 L 62 36 L 64 44 L 62 50 L 60 56 L 56 60 L 52 58 L 48 52 L 46 46 L 44 38 L 46 30 Z" fill="#81c784"/>
  
  <!-- Asia/Australia -->
  <path d="M 66 22 L 72 20 L 78 24 L 82 30 L 84 38 L 82 44 L 78 50 L 74 54 L 76 60 L 78 64 L 76 68 L 72 66 L 68 60 L 66 54 L 64 46 L 66 38 L 68 30 Z" fill="#66bb6a"/>
  
  <circle cx="50" cy="50" r="42" fill="none" stroke="#0d47a1" stroke-width="2"/>
</svg>