<svg xmlns="http://www.w3.org/2000/svg" viewBox="0 0 100 100">
  <defs>
    <radialGradient id="ocean4">
      <stop offset="0%" style="stop-color:#1565c0"/>
      <stop offset="100%" style="stop-color:#0d47a1"/>
    </radialGradient>
  </defs>
  <circle cx="50" cy="50" r="43" fill="url(#ocean4)"/>
  
  <!-- North America - detailed -->
  <path d="M 13 30 L 16 26 L 20 24 L 24 24 L 28 26 L 30 30 L 31 35 L 30 40 L 28 45 L 26 49 L 24 52 L 22 50 L 20 47 L 18 43 L 16 39 L 14 34 Z" fill="#2e7d32"/>
  
  <!-- South America -->
  <path d="M 22 54 L 25 52 L 28 55 L 29 59 L 29 63 L 28 67 L 26 71 L 23 73 L 20 72 L 17 69 L 15 65 L 14 61 L 15 57 L 18 54 Z" fill="#388e3c"/>
  
  <!-- Europe -->
  <path d="M 44 16 L 48 14 L 52 15 L 55 18 L 56 22 L 55 25 L 52 27 L 48 27 L 45 24 L 44 20 Z" fill="#2e7d32"/>
  
  <!-- Africa -->
  <path d="M 48 28 L 51 29 L 55 31 L 58 35 L 60 40 L 62 46 L 62 52 L 60 58 L 57 63 L 53 65 L 49 64 L 46 60 L 44 55 L 43 49 L 44 43 L 45 37 L 47 32 Z" fill="#388e3c"/>
  
  <!-- Asia -->
  <path d="M 58 16 L 63 14 L 69 14 L 74 16 L 79 20 L 83 25 L 85 31 L 85 37 L 83 42 L 80 47 L 76 50 L 71 51 L 67 49 L 63 45 L 60 40 L 59 34 L 59 28 L 60 22 Z" fill="#2e7d32"/>
  
  <!-- Australia -->
  <path d="M 72 56 L 76 54 L 80 55 L 83 59 L 82 63 L 79 66 L 75 67 L 71 65 L 70 61 L 71 57 Z" fill="#388e3c"/>
  
  <circle cx="50" cy="50" r="43" fill="none" stroke="#01579b" stroke-width="2.5"/>
</svg>