<svg xmlns="http://www.w3.org/2000/svg" viewBox="0 0 100 100">
  <circle cx="50" cy="50" r="45" fill="#1e88e5"/>
  
  <!-- North America - more detailed -->
  <path d="M 12 32 L 14 28 L 18 26 L 22 25 L 26 26 L 28 28 L 30 32 L 31 36 L 30 40 L 28 44 L 26 47 L 24 50 L 22 52 L 20 50 L 18 47 L 16 44 L 14 40 L 12 36 Z" fill="#4caf50"/>
  
  <!-- South America - distinctive shape -->
  <path d="M 22 54 L 24 52 L 26 54 L 28 58 L 29 62 L 28 66 L 27 70 L 25 73 L 22 75 L 19 74 L 17 71 L 15 67 L 14 63 L 15 59 L 17 56 L 20 54 Z" fill="#66bb6a"/>
  
  <!-- Greenland -->
  <path d="M 28 18 L 32 16 L 35 18 L 36 22 L 34 25 L 31 26 L 28 24 L 27 20 Z" fill="#4caf50"/>
  
  <!-- Europe - more angular -->
  <path d="M 46 16 L 50 14 L 54 15 L 56 18 L 57 22 L 56 25 L 54 27 L 50 28 L 47 26 L 45 22 L 45 18 Z" fill="#4caf50"/>
  
  <!-- Africa - distinctive boot shape -->
  <path d="M 50 28 L 53 29 L 56 31 L 58 34 L 60 38 L 62 43 L 63 48 L 62 53 L 60 58 L 57 62 L 54 64 L 51 63 L 48 60 L 46 55 L 45 50 L 45 45 L 46 40 L 47 35 L 49 31 Z" fill="#66bb6a"/>
  
  <!-- Asia - large mass -->
  <path d="M 58 16 L 62 14 L 68 14 L 73 16 L 78 20 L 82 25 L 84 30 L 85 35 L 84 40 L 82 44 L 79 48 L 75 50 L 71 51 L 67 50 L 63 47 L 60 43 L 58 38 L 57 33 L 57 28 L 58 22 Z" fill="#4caf50"/>
  
  <!-- Australia - distinct shape -->
  <path d="M 74 56 L 78 54 L 82 55 L 84 58 L 84 62 L 82 65 L 78 67 L 74 66 L 71 63 L 71 59 Z" fill="#66bb6a"/>
  
  <circle cx="50" cy="50" r="45" fill="none" stroke="#0d47a1" stroke-width="3"/>
</svg>