<svg xmlns="http://www.w3.org/2000/svg" viewBox="0 0 100 100">
  <!-- Dark elegant Earth -->
  <defs>
    <radialGradient id="darkocean">
      <stop offset="0%" style="stop-color:#1565c0"/>
      <stop offset="100%" style="stop-color:#0d47a1"/>
    </radialGradient>
  </defs>
  
  <circle cx="50" cy="50" r="43" fill="url(#darkocean)"/>
  
  <!-- Forest green continents -->
  <path d="M 28 28 Q 35 25 42 30 Q 46 36 40 42 Q 34 44 28 38 Z" fill="#2e7d32"/>
  <path d="M 62 22 Q 70 20 76 26 Q 78 34 72 38 Q 66 36 62 30 Z" fill="#388e3c"/>
  <path d="M 22 52 Q 30 48 38 54 Q 40 62 34 68 Q 28 66 22 60 Z" fill="#2e7d32"/>
  <path d="M 56 56 Q 64 52 72 58 Q 76 66 68 72 Q 62 70 56 64 Z" fill="#388e3c"/>
  
  <!-- Subtle highlights -->
  <circle cx="50" cy="50" r="43" fill="none" stroke="#1976d2" stroke-width="2" opacity="0.5"/>
  <circle cx="50" cy="50" r="43" fill="none" stroke="#01579b" stroke-width="2.5"/>
</svg>