<svg xmlns="http://www.w3.org/2000/svg" viewBox="0 0 100 100">
  <!-- Classic blue marble -->
  <defs>
    <radialGradient id="marble">
      <stop offset="0%" style="stop-color:#42a5f5"/>
      <stop offset="70%" style="stop-color:#1e88e5"/>
      <stop offset="100%" style="stop-color:#1565c0"/>
    </radialGradient>
  </defs>
  <circle cx="50" cy="50" r="44" fill="url(#marble)"/>
  
  <!-- Americas -->
  <path d="M 20 30 L 24 26 L 28 28 L 30 34 L 32 40 L 30 46 L 28 52 L 26 58 L 24 64 L 26 68 L 24 72 L 20 70 L 16 64 L 14 58 L 16 52 L 18 46 L 16 40 L 18 34 Z" fill="#388e3c"/>
  
  <!-- Europe/Africa -->
  <path d="M 46 20 L 50 18 L 54 20 L 58 24 L 60 30 L 62 36 L 64 42 L 66 48 L 64 54 L 62 60 L 58 64 L 54 66 L 50 64 L 46 60 L 44 54 L 42 48 L 44 42 L 46 36 L 48 30 L 46 24 Z" fill="#4caf50"/>
  
  <!-- Asia/Pacific -->
  <path d="M 68 24 L 72 22 L 76 24 L 80 28 L 82 34 L 84 40 L 82 46 L 78 50 L 74 54 L 70 56 L 66 52 L 64 46 L 66 40 L 68 34 L 70 28 Z" fill="#388e3c"/>
  
  <!-- Antarctica (bottom) -->
  <ellipse cx="50" cy="88" rx="20" ry="8" fill="white" opacity="0.9"/>
  
  <!-- Meridians and parallels -->
  <ellipse cx="50" cy="50" rx="22" ry="44" fill="none" stroke="rgba(255,255,255,0.3)" stroke-width="1.5"/>
  <ellipse cx="50" cy="50" rx="38" ry="44" fill="none" stroke="rgba(255,255,255,0.2)" stroke-width="1"/>
  <line x1="6" y1="50" x2="94" y2="50" stroke="rgba(255,255,255,0.3)" stroke-width="1.5"/>
  <ellipse cx="50" cy="50" rx="44" ry="25" fill="none" stroke="rgba(255,255,255,0.2)" stroke-width="1"/>
  
  <circle cx="50" cy="50" r="44" fill="none" stroke="#0d47a1" stroke-width="2.5"/>
</svg>