<svg xmlns="http://www.w3.org/2000/svg" viewBox="0 0 100 100">
  <!-- Ocean -->
  <circle cx="50" cy="50" r="44" fill="#1976d2"/>
  
  <!-- Americas (simplified) -->
  <path d="M 18 30 L 20 26 L 24 24 L 26 28 L 28 32 L 26 38 L 24 42 L 22 46 L 20 50 L 18 54 L 16 58 L 18 62 L 20 66 L 22 70 L 20 72 L 18 70 L 16 66 L 14 60 L 12 54 L 14 48 L 16 42 L 14 36 L 16 32 Z" fill="#43a047"/>
  
  <!-- Africa/Europe -->
  <path d="M 48 18 L 52 16 L 56 18 L 58 22 L 56 26 L 54 28 L 52 32 L 54 36 L 56 40 L 58 44 L 60 48 L 58 52 L 56 56 L 54 60 L 52 58 L 50 54 L 48 50 L 46 46 L 48 42 L 50 38 L 48 34 L 46 30 L 48 26 L 50 22 Z" fill="#66bb6a"/>
  
  <!-- Asia/Australia -->
  <path d="M 64 24 L 68 22 L 72 24 L 76 28 L 78 32 L 80 36 L 82 40 L 80 44 L 76 48 L 72 52 L 70 56 L 68 58 L 66 54 L 64 50 L 62 46 L 64 42 L 66 38 L 68 34 L 66 30 Z" fill="#43a047"/>
  
  <!-- Meridian lines -->
  <ellipse cx="50" cy="50" rx="22" ry="44" fill="none" stroke="white" stroke-width="1" opacity="0.3"/>
  <ellipse cx="50" cy="50" rx="44" ry="22" fill="none" stroke="white" stroke-width="1" opacity="0.3"/>
  
  <!-- Border -->
  <circle cx="50" cy="50" r="44" fill="none" stroke="#0d47a1" stroke-width="2.5"/>
</svg>