<svg xmlns="http://www.w3.org/2000/svg" viewBox="0 0 100 100">
  <!-- Teal ocean -->
  <circle cx="50" cy="50" r="45" fill="#06b6d4"/>
  
  <!-- Yellow/gold continents -->
  <path d="M 25 25 Q 32 20 40 25 Q 45 30 42 38 Q 38 42 32 40 Q 28 35 25 25 Z" fill="#eab308"/>
  <path d="M 55 18 Q 62 16 68 22 Q 70 28 68 34 Q 64 36 60 32 Q 56 26 55 18 Z" fill="#ca8a04"/>
  <path d="M 20 50 Q 28 45 36 50 Q 40 58 36 65 Q 30 68 24 62 Q 20 56 20 50 Z" fill="#eab308"/>
  <path d="M 52 52 Q 60 48 68 54 Q 72 62 68 70 Q 62 74 56 68 Q 52 60 52 52 Z" fill="#ca8a04"/>
  <path d="M 30 72 Q 38 70 45 76 Q 47 82 42 86 Q 35 84 30 78 Z" fill="#eab308"/>
  <path d="M 62 78 Q 70 76 76 82 Q 78 88 72 90 Q 66 86 62 78 Z" fill="#ca8a04"/>
  
  <!-- White ice -->
  <ellipse cx="50" cy="8" rx="16" ry="6" fill="white" opacity="0.95"/>
  <ellipse cx="50" cy="92" rx="16" ry="6" fill="white" opacity="0.95"/>
  
  <circle cx="50" cy="50" r="45" fill="none" stroke="#0e7490" stroke-width="2.5"/>
</svg>