<svg xmlns="http://www.w3.org/2000/svg" viewBox="0 0 100 100">
  <!-- Gradient ocean -->
  <defs>
    <radialGradient id="ocean2">
      <stop offset="20%" style="stop-color:#4fc3f7"/>
      <stop offset="100%" style="stop-color:#0288d1"/>
    </radialGradient>
  </defs>
  <circle cx="50" cy="50" r="45" fill="url(#ocean2)"/>
  
  <!-- Visible hemisphere - Americas side -->
  <path d="M 22 28 Q 26 24 30 28 L 32 34 L 34 40 L 32 46 L 30 52 L 28 58 L 26 64 L 24 70 Q 20 72 18 68 L 16 62 L 14 56 L 16 50 L 18 44 L 20 38 L 22 32 Z" fill="#2e7d32"/>
  
  <!-- Africa/Europe visible -->
  <path d="M 46 20 Q 50 18 54 20 L 56 24 L 58 28 L 60 34 L 62 40 L 64 46 L 62 52 L 60 58 L 58 64 Q 54 66 50 64 L 48 58 L 46 52 L 44 46 L 46 40 L 48 34 L 46 28 Z" fill="#388e3c"/>
  
  <!-- Asia visible -->
  <path d="M 68 26 Q 72 24 76 26 L 78 30 L 80 36 L 82 42 L 80 48 L 78 54 Q 74 56 70 54 L 68 48 L 66 42 L 68 36 Z" fill="#2e7d32"/>
  
  <!-- Grid lines -->
  <ellipse cx="50" cy="50" rx="20" ry="45" fill="none" stroke="rgba(255,255,255,0.25)" stroke-width="1.5"/>
  <ellipse cx="50" cy="50" rx="35" ry="45" fill="none" stroke="rgba(255,255,255,0.2)" stroke-width="1"/>
  <line x1="5" y1="50" x2="95" y2="50" stroke="rgba(255,255,255,0.25)" stroke-width="1.5"/>
  <ellipse cx="50" cy="50" rx="45" ry="20" fill="none" stroke="rgba(255,255,255,0.2)" stroke-width="1"/>
  
  <circle cx="50" cy="50" r="45" fill="none" stroke="#01579b" stroke-width="2"/>
</svg>