<svg xmlns="http://www.w3.org/2000/svg" viewBox="0 0 100 100">
  <!-- Gradient ocean -->
  <defs>
    <radialGradient id="ocean1">
      <stop offset="0%" style="stop-color:#60a5fa"/>
      <stop offset="100%" style="stop-color:#1e40af"/>
    </radialGradient>
  </defs>
  <circle cx="50" cy="50" r="45" fill="url(#ocean1)"/>
  
  <!-- Americas-style continents -->
  <path d="M 35 20 Q 40 18 45 22 L 48 28 Q 52 32 50 38 L 48 45 Q 45 50 42 48 L 38 42 Q 35 35 33 28 Z" fill="#22c55e"/>
  <path d="M 48 48 Q 52 46 56 50 L 58 58 Q 56 65 52 68 L 48 72 Q 44 75 42 70 L 40 60 Q 42 52 48 48 Z" fill="#16a34a"/>
  
  <!-- Africa/Europe style -->
  <path d="M 60 22 Q 65 20 72 24 Q 75 30 73 36 L 68 42 Q 64 44 62 38 L 60 30 Z" fill="#22c55e"/>
  <path d="M 68 45 Q 72 44 76 48 Q 78 55 75 62 L 70 68 Q 66 70 64 65 L 62 55 Q 64 48 68 45 Z" fill="#16a34a"/>
  
  <!-- Ice caps -->
  <ellipse cx="50" cy="8" rx="18" ry="7" fill="#f0f9ff"/>
  <ellipse cx="50" cy="92" rx="18" ry="7" fill="#f0f9ff"/>
  
  <!-- Outline -->
  <circle cx="50" cy="50" r="45" fill="none" stroke="#0c4a6e" stroke-width="2.5"/>
</svg>