<svg xmlns="http://www.w3.org/2000/svg" viewBox="0 0 100 100">
  <!-- Bright ocean -->
  <circle cx="50" cy="50" r="43" fill="#00acc1"/>
  
  <!-- North/South America -->
  <path d="M 20 32 L 24 28 L 28 30 L 30 36 L 28 42 L 26 48 L 24 54 L 22 60 L 24 66 L 22 70 L 18 68 L 16 62 L 14 56 L 16 50 L 18 44 L 16 38 Z" fill="#00c853"/>
  
  <!-- Europe/Africa -->
  <path d="M 48 22 L 52 20 L 56 22 L 58 26 L 60 32 L 62 38 L 64 44 L 62 50 L 60 56 L 58 62 L 54 64 L 50 62 L 48 56 L 46 50 L 48 44 L 50 38 L 48 32 Z" fill="#00e676"/>
  
  <!-- Asia -->
  <path d="M 66 28 L 70 26 L 74 28 L 78 32 L 80 38 L 82 44 L 80 50 L 76 54 L 72 56 L 68 52 L 66 46 L 64 40 Z" fill="#00c853"/>
  
  <!-- Lat/Long lines -->
  <ellipse cx="50" cy="50" rx="21" ry="43" fill="none" stroke="white" stroke-width="1.2" opacity="0.35"/>
  <line x1="7" y1="50" x2="93" y2="50" stroke="white" stroke-width="1.2" opacity="0.35"/>
  <ellipse cx="50" cy="50" rx="43" ry="18" fill="none" stroke="white" stroke-width="1" opacity="0.3"/>
  
  <circle cx="50" cy="50" r="43" fill="none" stroke="#00838f" stroke-width="2.5"/>
</svg>